<svg width="144" height="142" viewBox="0 0 144 142" fill="none" xmlns="http://www.w3.org/2000/svg">
<g opacity="0.3">
<rect width="35.8893" height="35.8893" transform="matrix(1 -8.74228e-08 -8.74228e-08 -1 0 105.646)" fill="#D9D9D9"/>
<rect width="35.8893" height="35.8893" transform="matrix(1 -8.74228e-08 -8.74228e-08 -1 35.8894 105.646)" fill="#D9D9D9" fill-opacity="0.5"/>
<rect width="35.8893" height="35.8893" transform="matrix(1 -8.74228e-08 -8.74228e-08 -1 35.8894 69.7568)" fill="#D9D9D9" fill-opacity="0.9"/>
<rect width="35.8893" height="35.8893" transform="matrix(1 -8.74228e-08 -8.74228e-08 -1 71.7786 105.646)" fill="#D9D9D9" fill-opacity="0.9"/>
<rect width="35.8893" height="35.8893" transform="matrix(1 -8.74228e-08 -8.74228e-08 -1 107.668 105.646)" fill="#D9D9D9" fill-opacity="0.5"/>
<rect width="35.8893" height="35.8893" transform="matrix(1 -8.74228e-08 -8.74228e-08 -1 107.668 141.536)" fill="#D9D9D9" fill-opacity="0.9"/>
<rect width="35.8893" height="35.8893" transform="matrix(1 -8.74228e-08 -8.74228e-08 -1 0 35.8894)" fill="#D9D9D9" fill-opacity="0.9"/>
</g>
</svg>
